<svg width="123" height="123" viewBox="0 0 123 123" fill="none" xmlns="http://www.w3.org/2000/svg">
<rect x="11" y="11" width="100" height="100" rx="20" fill="#FFE8C8"/>
<rect x="25.8818" width="100" height="100" rx="20" transform="rotate(15 25.8818 0)" fill="#FFE8C8" fill-opacity="0.5"/>
<g clip-path="url(#clip0_116_66)">
<path d="M59.0102 54.8914H56.2335V57.668H59.0102C59.7769 57.668 60.3985 57.0464 60.3985 56.2797C60.3985 55.513 59.7769 54.8914 59.0102 54.8914Z" fill="#FFB35C"/>
<path d="M59.0102 64.6097H56.2335V67.3863H59.0102C59.7769 67.3863 60.3985 66.7647 60.3985 65.998C60.3985 65.2313 59.7769 64.6097 59.0102 64.6097Z" fill="#FFB35C"/>
<path d="M57.6217 65.998C57.6217 65.2313 57.0001 64.6097 56.2334 64.6097H55.4467V57.668H56.2334C57.0001 57.668 57.6217 57.0464 57.6217 56.2797C57.6217 55.5129 57.0001 54.8913 56.2334 54.8913H55.4467V51.328C55.4467 50.5612 54.8251 49.9396 54.0584 49.9396C53.2916 49.9396 52.67 50.5612 52.67 51.328V54.8913H45.7284V51.328C45.7284 50.5612 45.1068 49.9396 44.3401 49.9396C43.5733 49.9396 42.9517 50.5612 42.9517 51.328V54.8913H39.3883C38.6216 54.8913 38 55.5129 38 56.2797C38 57.0464 38.6216 57.668 39.3883 57.668H42.9517V64.6097H39.3883C38.6216 64.6097 38 65.2313 38 65.998C38 66.7647 38.6216 67.3863 39.3883 67.3863H42.9517V70.9497C42.9517 71.7164 43.5733 72.338 44.3401 72.338C45.1068 72.338 45.7284 71.7164 45.7284 70.9497V67.3863H52.67V70.9497C52.67 71.7164 53.2916 72.338 54.0584 72.338C54.8251 72.338 55.4467 71.7164 55.4467 70.9497V67.3863H56.2334C57.0001 67.3863 57.6217 66.7647 57.6217 65.998ZM52.67 64.6097H45.7284V57.668H52.67V64.6097Z" fill="#FFAC37"/>
<path d="M79.835 75.67V42.165C79.835 39.8647 77.9703 38 75.67 38H63.1751C60.8748 38 59.0101 39.8647 59.0101 42.165C59.0101 44.4653 60.8748 46.33 63.1751 46.33V75.67C60.8748 75.67 59.0101 77.5347 59.0101 79.835C59.0101 82.1353 60.8748 84 63.1751 84H79.835C82.1353 84 84 82.1353 84 79.835C84 77.5347 82.1353 75.67 79.835 75.67Z" fill="#FFAC37"/>
<path d="M74.2815 78.5855V42.3038C74.2815 41.5371 73.6599 40.9155 72.8932 40.9155H63.1749C62.4082 40.9155 61.7866 41.5371 61.7866 42.3038C61.7866 43.0705 62.4082 43.6921 63.1749 43.6921H65.9516V78.5855H63.1749C62.4082 78.5855 61.7866 79.2071 61.7866 79.9738C61.7866 80.7405 62.4082 81.3621 63.1749 81.3621H77.0582C75.5247 81.3621 74.2815 80.119 74.2815 78.5855Z" fill="#FFBE40"/>
</g>
<defs>
<clipPath id="clip0_116_66">
<rect width="46" height="46" fill="white" transform="translate(38 38)"/>
</clipPath>
</defs>
</svg>
