<svg width="123" height="123" viewBox="0 0 123 123" fill="none" xmlns="http://www.w3.org/2000/svg">
<rect x="25.8818" width="100" height="100" rx="20" transform="rotate(15 25.8818 0)" fill="#FFE8C8" fill-opacity="0.5"/>
<rect x="11" y="11" width="100" height="100" rx="20" fill="#FFE8C8"/>
<path d="M52.5039 86.6998H33.8125C32.8741 86.6998 32.1133 85.939 32.1133 85.0005V64.6099C32.1133 63.6715 32.8741 62.9107 33.8125 62.9107H52.5039C53.4423 62.9107 54.2031 63.6715 54.2031 64.6099V85.0005C54.2031 85.939 53.4423 86.6998 52.5039 86.6998Z" fill="#FB9333"/>
<path d="M52.5039 62.9107H42.3086V86.6998H52.5039C53.4423 86.6998 54.2031 85.939 54.2031 85.0005V64.6099C54.2031 63.6715 53.4423 62.9107 52.5039 62.9107Z" fill="#FB9333"/>
<path d="M84.4675 42.3521L79.9179 40.5396L74.9152 42.3521L73.4726 54.6146C73.4159 55.0965 73.5679 55.5796 73.8903 55.9422C74.2127 56.3048 74.6749 56.5123 75.1601 56.5123H84.2226C84.7078 56.5123 85.1699 56.3048 85.4924 55.9422C85.8149 55.5796 85.9668 55.0965 85.9102 54.6146L84.4675 42.3521Z" fill="#FB9333"/>
<path d="M85.9099 54.6146L84.4672 42.3521L79.9176 40.5396L79.691 40.6217V56.5123H84.2223C84.7075 56.5123 85.1696 56.3048 85.4921 55.9422C85.8146 55.5796 85.9665 55.0964 85.9099 54.6146V54.6146Z" fill="#FB9333"/>
<path d="M56.4804 54.6146C56.4237 55.0965 56.5758 55.5796 56.8982 55.9422C57.2206 56.3048 57.6827 56.5123 58.1679 56.5123H67.2304C67.7156 56.5123 68.1777 56.3048 68.5002 55.9422C68.8227 55.5796 68.9746 55.0965 68.918 54.6146L67.4753 42.3521L62.8125 39.6334L57.923 42.3521L56.4804 54.6146Z" fill="#FB9333"/>
<path d="M68.9177 54.6146L67.475 42.3521L62.8121 39.6334L62.6989 39.6963V56.5123H67.2301C67.7153 56.5123 68.1774 56.3048 68.4999 55.9422C68.8224 55.5796 68.9743 55.0964 68.9177 54.6146V54.6146Z" fill="#FB9333"/>
<path d="M83.6447 35.3568C83.5441 34.5009 82.8187 33.856 81.9571 33.856H77.4259C76.5643 33.856 75.8389 34.5009 75.7383 35.3568L74.9153 42.3521H84.4678L83.6447 35.3568Z" fill="#FFAC37"/>
<path d="M83.6442 35.3568C83.5436 34.5009 82.8183 33.856 81.9567 33.856H79.691V42.3521H84.4672L83.6442 35.3568Z" fill="#FFAC37"/>
<path d="M64.9649 33.856H60.4337C59.5721 33.856 58.8467 34.5009 58.7461 35.3568L57.9232 42.3521H67.4756L66.6526 35.3568C66.5519 34.5009 65.8266 33.856 64.9649 33.856V33.856Z" fill="#FFAC37"/>
<path d="M66.652 35.3568C66.5514 34.5009 65.8261 33.856 64.9645 33.856H62.6989V42.3521H67.475L66.652 35.3568Z" fill="#FFAC37"/>
<path d="M38.9102 76.5045C37.9717 76.5045 37.2109 75.7437 37.2109 74.8052V71.4068C37.2109 70.4684 37.9717 69.7076 38.9102 69.7076C39.8486 69.7076 40.6094 70.4684 40.6094 71.4068V74.8052C40.6094 75.7437 39.8486 76.5045 38.9102 76.5045Z" fill="#FFF8EE"/>
<path d="M45.707 76.5045C44.7686 76.5045 44.0078 75.7437 44.0078 74.8052V71.4068C44.0078 70.4684 44.7686 69.7076 45.707 69.7076C46.6455 69.7076 47.4062 70.4684 47.4062 71.4068V74.8052C47.4062 75.7437 46.6455 76.5045 45.707 76.5045Z" fill="white"/>
<path d="M76.293 86.6998H88.1875C89.1259 86.6998 89.8867 85.939 89.8867 85.0005V57.813C89.8867 56.8746 89.1259 56.1138 88.1875 56.1138H54.2031C53.2647 56.1138 52.5039 56.8746 52.5039 57.813V86.6998H66.0977L70.9688 85.7935L76.293 86.6998Z" fill="#FFAC37"/>
<path d="M88.1875 56.1138H71.1953V85.832L76.293 86.6998H88.1875C89.1259 86.6998 89.8867 85.939 89.8867 85.0005V57.813C89.8867 56.8746 89.1259 56.1138 88.1875 56.1138Z" fill="#FFAC37"/>
<path d="M61 79.9029C60.0616 79.9029 59.3008 79.1421 59.3008 78.2037V74.8052C59.3008 73.8668 60.0616 73.106 61 73.106C61.9384 73.106 62.6992 73.8668 62.6992 74.8052V78.2037C62.6992 79.1421 61.9384 79.9029 61 79.9029Z" fill="#FFF8EE"/>
<path d="M61 69.7076C60.0616 69.7076 59.3008 68.9468 59.3008 68.0084V64.6099C59.3008 63.6715 60.0616 62.9107 61 62.9107C61.9384 62.9107 62.6992 63.6715 62.6992 64.6099V68.0084C62.6992 68.9468 61.9384 69.7076 61 69.7076Z" fill="#FFF8EE"/>
<path d="M81.3906 79.9029C80.4522 79.9029 79.6914 79.1421 79.6914 78.2037V74.8052C79.6914 73.8668 80.4522 73.106 81.3906 73.106C82.329 73.106 83.0898 73.8668 83.0898 74.8052V78.2037C83.0898 79.1421 82.329 79.9029 81.3906 79.9029Z" fill="white"/>
<path d="M81.3906 69.7076C80.4522 69.7076 79.6914 68.9468 79.6914 68.0084V64.6099C79.6914 63.6715 80.4522 62.9107 81.3906 62.9107C82.329 62.9107 83.0898 63.6715 83.0898 64.6099V68.0084C83.0898 68.9468 82.329 69.7076 81.3906 69.7076Z" fill="white"/>
<path d="M67.7969 69.7076C66.8585 69.7076 66.0977 68.9468 66.0977 68.0084V64.6099C66.0977 63.6715 66.8585 62.9107 67.7969 62.9107C68.7353 62.9107 69.4961 63.6715 69.4961 64.6099V68.0084C69.4961 68.9468 68.7353 69.7076 67.7969 69.7076Z" fill="#FFF8EE"/>
<path d="M74.5938 69.7076C73.6553 69.7076 72.8945 68.9468 72.8945 68.0084V64.6099C72.8945 63.6715 73.6553 62.9107 74.5938 62.9107C75.5322 62.9107 76.293 63.6715 76.293 64.6099V68.0084C76.293 68.9468 75.5322 69.7076 74.5938 69.7076Z" fill="white"/>
<path d="M74.5938 73.106H67.7969C66.8585 73.106 66.0977 73.8668 66.0977 74.8052V86.6998H69.4961L71.082 85.567L72.8945 86.6998H76.293V74.8052C76.293 73.8668 75.5322 73.106 74.5938 73.106Z" fill="#FFF8EE"/>
<path d="M74.5938 73.106H71.1953V85.6378L72.8945 86.6998H76.293V74.8052C76.293 73.8668 75.5322 73.106 74.5938 73.106Z" fill="white"/>
<path d="M69.4961 76.5045H72.8945V86.6998H69.4961V76.5045Z" fill="#FFAC37"/>
<path d="M71.1953 76.5045H72.8945V86.6998H71.1953V76.5045Z" fill="#FFAC37"/>
</svg>
